# xmcd
#
# Track frame offsets:
#	150
#	18038
#	32445
#	46237
#	63231
#	77230
#	94327
#	108477
#	129374
#	147074
#	166248
#
# Disc length: 2422 seconds
#
# Revision: 1
# Processed by: cddbd v1.5.2PL0 Copyright (c) Steve Scherf et al.
# Submitted via: audiograbber 1.83.01
#
DISCID=8009740b
DTITLE=Vince Gill - The Millennium Collection
DYEAR=1900
DGENRE=Country
TTITLE0=I Still Believe In You
TTITLE1=One More Last Chance
TTITLE2=What The Cowgirls Do
TTITLE3=You Better Think Twice
TTITLE4=High Lonesome Sound (with Alison Krauss and Union Station)
TTITLE5=Pretty Little Adriana
TTITLE6=A Little More Love
TTITLE7=If You Ever Have Forever In Mind
TTITLE8=My Kind Of Woman - My Kind Of Man (with Patty Loveless)
TTITLE9=Feels Like Love
TTITLE10=Next Big Thing
EXTD=
EXTT0=
EXTT1=
EXTT2=
EXTT3=
EXTT4=
EXTT5=
EXTT6=
EXTT7=
EXTT8=
EXTT9=
EXTT10=
PLAYORDER=
